<?xml version="1.0" encoding="utf-8"?>
<!-- Generator: Adobe Illustrator 16.0.3, SVG Export Plug-In . SVG Version: 6.00 Build 0)  -->
<!DOCTYPE svg PUBLIC "-//W3C//DTD SVG 1.1//EN" "http://www.w3.org/Graphics/SVG/1.1/DTD/svg11.dtd">
<svg version="1.1" id="Capa_1" xmlns="http://www.w3.org/2000/svg" xmlns:xlink="http://www.w3.org/1999/xlink" x="0px" y="0px"
	 width="560px" height="560px" viewBox="0 0 560 560" enable-background="new 0 0 560 560" xml:space="preserve">
<g>
	<path fill="#FFFFFF" d="M152.49,211.09l-41.347,0.214l-33.988-0.214l0.401-113.156c0,0,4.096-19.685,21.363-28.008
		c23.423-11.29,41.221,4.063,41.221,4.063L280,181.088v93.34L152.49,174.691"/>
	<path fill="#FFFFFF" d="M16.382,274.823c0.04-22.515,20.452-24.312,20.452-24.312h146.825L280,325.612v72.396l-121.221-95.643
		l-126.51-3.262C32.27,299.104,16.351,291.918,16.382,274.823z"/>
	<path fill="#FFFFFF" d="M76.905,340.229h75.702l0.003,123.965c0,0,2.522,30.024-38.488,30.024
		c-37.217,0-36.466-30.427-36.466-30.427L76.905,340.229z"/>
	<path fill="#FFFFFF" d="M407.512,211.09l41.346,0.214l33.988-0.214l-0.4-113.156c0,0-4.096-19.685-21.363-28.008
		c-23.423-11.29-41.22,4.063-41.22,4.063L280,181.088v93.34l127.511-99.736"/>
	<path fill="#FFFFFF" d="M543.617,274.823c-0.037-22.515-20.451-24.312-20.451-24.312H376.342L280,325.612v72.396l121.222-95.643
		l126.508-3.262C527.73,299.104,543.65,291.918,543.617,274.823z"/>
	<path fill="#FFFFFF" d="M483.096,340.229h-75.701l-0.004,123.965c0,0-2.522,30.024,38.488,30.024
		c37.217,0,36.467-30.427,36.467-30.427L483.096,340.229z"/>
</g>
</svg>
